<svg width="36" height="36" viewBox="0 0 36 36" fill="none" xmlns="http://www.w3.org/2000/svg">
<path fill-rule="evenodd" clip-rule="evenodd" d="M5.5 0.5C4.17392 0.5 2.90215 1.02678 1.96447 1.96447C1.02678 2.90215 0.5 4.17392 0.5 5.5V30.5C0.5 31.8261 1.02678 33.0979 1.96447 34.0355C2.90215 34.9732 4.17392 35.5 5.5 35.5H30.5C31.8261 35.5 33.0979 34.9732 34.0355 34.0355C34.9732 33.0979 35.5 31.8261 35.5 30.5V5.5C35.5 4.17392 34.9732 2.90215 34.0355 1.96447C33.0979 1.02678 31.8261 0.5 30.5 0.5H5.5ZM8.255 11.2425C9.04733 11.2425 9.80722 10.9277 10.3675 10.3675C10.9277 9.80722 11.2425 9.04733 11.2425 8.255C11.2425 7.46267 10.9277 6.70278 10.3675 6.14252C9.80722 5.58225 9.04733 5.2675 8.255 5.2675C7.46267 5.2675 6.70278 5.58225 6.14252 6.14252C5.58225 6.70278 5.2675 7.46267 5.2675 8.255C5.2675 9.04733 5.58225 9.80722 6.14252 10.3675C6.70278 10.9277 7.46267 11.2425 8.255 11.2425ZM10.755 30.0325V13.585H5.755V30.0325H10.755ZM14.075 13.585H19.075V15.7875C19.8125 14.6325 21.4325 13.0775 24.445 13.0775C28.04 13.0775 29.9925 15.46 29.9925 19.9925C29.9925 20.21 30.0125 21.2025 30.0125 21.2025V30.03H25.0125V21.205C25.0125 19.9925 24.7575 17.61 22.0625 17.61C19.365 17.61 19.1375 20.605 19.075 22.565V30.03H14.075V13.585Z" fill="black"/>
</svg>
